<?xml version="1.0" standalone="no"?>
<!DOCTYPE svg PUBLIC "-//W3C//DTD SVG 20010904//EN"
 "http://www.w3.org/TR/2001/REC-SVG-20010904/DTD/svg10.dtd">
<svg version="1.0" xmlns="http://www.w3.org/2000/svg"
 width="500.000000pt" height="500.000000pt" viewBox="0 0 500.000000 500.000000"
 preserveAspectRatio="xMidYMid meet">

<g transform="translate(0.000000,500.000000) scale(0.100000,-0.100000)"
fill="#000000" stroke="none">
<path d="M456 3559 c-5 -43 -32 -312 -41 -414 -2 -27 -7 -75 -10 -105 -6 -53
-5 -56 27 -81 28 -22 50 -28 147 -38 63 -7 118 -14 123 -17 4 -3 8 -61 8 -129
l0 -124 -242 -3 c-134 -2 -249 -1 -255 1 -9 2 -13 22 -13 57 0 57 -3 60 -44
44 -23 -8 -25 -12 -16 -35 6 -15 10 -85 10 -156 0 -114 2 -130 18 -136 9 -3
25 -12 34 -20 14 -13 60 -13 313 -5 168 6 301 14 307 20 6 6 8 69 6 158 l-3
149 -32 34 c-27 27 -33 41 -33 76 0 37 5 46 34 68 30 24 34 32 40 95 11 114 1
110 227 89 175 -16 195 -16 205 -2 18 24 41 308 26 313 -7 2 -19 11 -28 19
-11 12 -64 21 -190 34 -96 10 -179 21 -184 24 -6 4 -10 16 -10 29 0 44 -43 61
-190 75 -74 6 -156 15 -182 18 l-46 5 -6 -43z"/>
<path d="M3305 2957 c-3 -6 -4 -201 -3 -432 l3 -420 40 0 c39 0 40 1 43 38 4
42 14 47 36 16 64 -93 247 -89 336 7 47 51 66 93 81 180 13 74 0 174 -31 233
-70 137 -253 163 -369 54 l-46 -44 -3 191 -2 190 -41 0 c-22 0 -42 -5 -44 -13z
m370 -353 c14 -9 38 -37 52 -62 23 -39 27 -57 27 -126 0 -95 -14 -144 -57
-193 -90 -102 -239 -77 -292 49 -17 43 -20 164 -5 219 13 47 74 116 113 129
44 13 130 5 162 -16z"/>
<path d="M4740 2534 l0 -435 38 3 37 3 3 423 c2 327 5 422 15 422 8 0 7 4 -3
10 -8 5 -32 10 -52 10 l-38 0 0 -436z"/>
<path d="M3010 2875 c0 -25 5 -45 10 -46 73 -7 75 -5 78 44 l3 47 -45 0 -46 0
0 -45z"/>
<path d="M870 2500 l0 -410 320 0 320 0 0 40 0 40 -249 0 c-218 0 -250 2 -255
16 -3 9 -6 69 -6 134 0 65 3 125 6 134 5 14 35 16 226 16 l219 0 -3 38 -3 37
-220 5 -220 5 -3 130 c-2 115 -1 131 15 143 13 9 72 12 238 12 l220 -2 3 36 3
36 -305 0 -306 0 0 -410z"/>
<path d="M1912 2678 c-24 -12 -53 -34 -65 -49 -31 -42 -46 -37 -44 14 l2 42
-40 0 -40 0 0 -290 0 -290 40 0 40 0 5 200 c3 118 10 211 17 226 17 38 78 87
118 95 71 13 102 -2 167 -79 1 -1 4 -101 7 -222 l6 -220 40 0 40 0 0 220 c0
237 -5 264 -54 319 -53 59 -157 74 -239 34z"/>
<path d="M4169 2684 c-52 -16 -131 -80 -153 -125 -55 -111 -42 -281 28 -374
86 -113 305 -125 420 -24 71 63 90 114 90 239 0 119 -12 156 -70 220 -65 72
-200 100 -315 64z m170 -64 c83 -23 131 -108 131 -228 0 -87 -20 -141 -66
-183 -93 -83 -248 -56 -306 54 -19 35 -23 58 -23 132 0 80 3 95 27 136 50 84
138 118 237 89z"/>
<path d="M2330 2682 c0 -5 9 -31 19 -58 11 -27 43 -110 72 -184 28 -74 62
-162 75 -195 12 -33 29 -77 35 -97 7 -21 15 -38 19 -39 54 -5 82 -4 88 5 6 11
119 286 188 461 20 50 38 96 41 103 4 8 -6 12 -30 12 -43 0 -67 -8 -67 -24 0
-10 -24 -77 -113 -311 -17 -44 -33 -96 -36 -115 -9 -47 -37 -53 -43 -8 -3 18
-24 85 -47 148 -23 63 -49 133 -56 155 -58 165 -48 150 -99 153 -25 2 -46 -1
-46 -6z"/>
<path d="M3005 2678 c-3 -7 -4 -139 -3 -293 l3 -280 38 0 38 0 0 290 0 290
-36 3 c-22 2 -37 -2 -40 -10z"/>
</g>
</svg>
